<?xml version="1.0" encoding="utf-8"?>
<!-- Generator: Adobe Illustrator 24.3.0, SVG Export Plug-In . SVG Version: 6.00 Build 0)  -->
<svg version="1.1" id="Calque_1" xmlns="http://www.w3.org/2000/svg" xmlns:xlink="http://www.w3.org/1999/xlink" x="0px" y="0px"
	 viewBox="0 0 283.5 283.5" style="enable-background:new 0 0 283.5 283.5;" xml:space="preserve">
<style type="text/css">
	.st0{fill:#FFFFFF;}
</style>
<g>
	<path class="st0" d="M257.5,257.5c-16.1,0-31.8,0-47.8,0c0-1.7,0-3.1,0-4.5c0-25.4,0.1-50.7-0.2-76.1c-0.1-6.2-0.9-12.5-2.5-18.5
		c-3.2-12.1-11.5-17.5-24.1-17.1c-17.2,0.6-24.7,10.1-26.3,26.5c-1.1,11.5-0.8,23.1-0.9,34.7c-0.1,18.2,0,36.4,0,54.9
		c-16.1,0-32,0-48.2,0c0-51.4,0-102.7,0-154.4c15.2,0,30.4,0,46.1,0c0,6.7,0,13.2,0,20.2c0.8-0.4,1.2-0.5,1.3-0.7
		c9.5-14.8,23.4-22.1,40.6-23.5c11.6-0.9,22.9,0.5,33.6,5.3c14.1,6.5,22,18.3,24.8,33c2.3,11.9,3.4,24.2,3.6,36.4
		c0.5,26.8,0.2,53.6,0.2,80.4C257.8,255.2,257.6,256.2,257.5,257.5z"/>
	<path class="st0" d="M29.1,103c16.1,0,31.9,0,48,0c0,51.4,0,102.7,0,154.5c-1,0.1-2.1,0.3-3.2,0.3c-13.8,0-27.6-0.1-41.4,0.1
		c-2.9,0-3.7-0.9-3.7-3.8c0.1-49.2,0.1-98.3,0.1-147.5C28.8,105.4,29,104.3,29.1,103z"/>
	<path class="st0" d="M25.4,53.2c0.1-15.3,12.7-27.8,27.9-27.8c15.2,0,27.6,12.6,27.5,28.1c-0.1,15.4-12.2,27.7-27.4,27.8
		C38.1,81.4,25.3,68.6,25.4,53.2z"/>
</g>
</svg>
