<svg id="Calque_1" data-name="Calque 1" xmlns="http://www.w3.org/2000/svg" viewBox="0 0 459.43 112.51"><defs><style>.cls-1{fill:#3b3a3a}.cls-2{fill:#2b2b2b}.cls-3{fill:#3c8934}.cls-4{fill:#e73631}.cls-5{fill:#ea4f52}</style></defs><title>logo-la-nutrition</title><path class="cls-1" d="M12.24 106.25a4.21 4.21 0 0 1-.34 1.69 4.39 4.39 0 0 1-2.32 2.32 4.15 4.15 0 0 1-1.67.34H.09V93.82H7.7a3.31 3.31 0 0 1 1.58.38 4 4 0 0 1 1.21 1 4.5 4.5 0 0 1 .77 1.37 4.61 4.61 0 0 1 .27 1.55 4.46 4.46 0 0 1-.64 2.34A3.79 3.79 0 0 1 9.12 102a4.35 4.35 0 0 1 2.28 1.61 4.29 4.29 0 0 1 .63 1.24 4.64 4.64 0 0 1 .21 1.4zM.92 94.58v7.18h6.5a2.89 2.89 0 0 0 1.33-.31 3.36 3.36 0 0 0 1-.82 3.9 3.9 0 0 0 .69-1.15 3.62 3.62 0 0 0 .25-1.32 4 4 0 0 0-.24-1.36 3.82 3.82 0 0 0-.65-1.15 3.14 3.14 0 0 0-1-.79 2.8 2.8 0 0 0-1.29-.29H.92zm10.51 11.6a3.82 3.82 0 0 0-.26-1.38 3.88 3.88 0 0 0-.71-1.18 3.49 3.49 0 0 0-1.06-.82 2.93 2.93 0 0 0-1.32-.31H.92v7.35h7a3.12 3.12 0 0 0 1.37-.31 3.72 3.72 0 0 0 1.12-.83 3.89 3.89 0 0 0 .76-1.18 3.52 3.52 0 0 0 .26-1.34zm15.24 4.53a6.93 6.93 0 0 1-3.19-.73 8.24 8.24 0 0 1-2.48-1.91 8.54 8.54 0 0 1-1.61-2.72 9 9 0 0 1-.57-3.14 8.72 8.72 0 0 1 .6-3.21 9 9 0 0 1 1.65-2.72 8 8 0 0 1 2.48-1.88 7 7 0 0 1 3.11-.7 6.85 6.85 0 0 1 3.19.74 8.08 8.08 0 0 1 2.47 1.95 9 9 0 0 1 1.59 2.73 8.88 8.88 0 0 1-1.69 9 8.06 8.06 0 0 1-2.46 1.88 6.94 6.94 0 0 1-3.09.71zm-7-8.51a8.24 8.24 0 0 0 .52 2.91 8 8 0 0 0 1.45 2.47 7 7 0 0 0 2.22 1.71 6.26 6.26 0 0 0 2.82.64 6.1 6.1 0 0 0 2.87-.67 7.3 7.3 0 0 0 2.21-1.76 7.88 7.88 0 0 0 1.41-2.5 8.33 8.33 0 0 0 .5-2.81 8.08 8.08 0 0 0-.53-2.91 8.19 8.19 0 0 0-1.46-2.47 7.08 7.08 0 0 0-2.22-1.71 6.17 6.17 0 0 0-2.78-.64 6.1 6.1 0 0 0-2.87.67 7.28 7.28 0 0 0-2.21 1.76 8.29 8.29 0 0 0-1.94 5.32zM43 95.38v15.22h-.78V93.82h.61l12.34 15.48V93.82H56v16.78h-.8zm37-1.56h.7l7.21 16.77H87l-2.48-5.79h-8.38l-2.48 5.79h-.9zm4.3 10.28l-3.95-9.24-4 9.24h7.95zm-5.72-15.19h1l1.49 1.87-.57.31zm41.63 21.69V95.43l-7 11.91h-.61l-7-11.91v15.17h-.83V93.82h.76l7.39 12.5 7.4-12.5h.68v16.78h-.83zm15.07-16.78h.72l7.21 16.77h-.87l-2.48-5.79h-8.41l-2.48 5.79H128zm4.3 10.28l-3.95-9.24-4 9.24h7.91zm11.5-8.72v15.22h-.83V93.82h.61l12.34 15.48V93.82h.8v16.78h-.8zm34.43 12.48a7.68 7.68 0 0 1-5.86 2.86 6.87 6.87 0 0 1-3.18-.74A8.19 8.19 0 0 1 174 108a9.26 9.26 0 0 1-1.63-2.73 8.47 8.47 0 0 1-.59-3.08 9.14 9.14 0 0 1 .57-3.19 8.69 8.69 0 0 1 1.59-2.72 7.92 7.92 0 0 1 2.43-1.89 6.75 6.75 0 0 1 3.08-.71 8.9 8.9 0 0 1 2.29.27 6.67 6.67 0 0 1 1.8.76 5.63 5.63 0 0 1 1.35 1.16 7.47 7.47 0 0 1 1 1.48l-.69.35a5.7 5.7 0 0 0-2.39-2.48 7.21 7.21 0 0 0-3.35-.76 6 6 0 0 0-2.85.67 7 7 0 0 0-2.15 1.76 7.93 7.93 0 0 0-1.36 2.47 8.66 8.66 0 0 0-.47 2.82 7.84 7.84 0 0 0 .56 2.93 8.14 8.14 0 0 0 1.51 2.46 7.37 7.37 0 0 0 2.26 1.7 6.23 6.23 0 0 0 2.79.64 6.52 6.52 0 0 0 3-.73 9.54 9.54 0 0 0 2.8-2.32v-3.64h-3.87v-.71h4.63v8.06h-.76v-2.74zm19.87 1.98v.76H194.3V93.82h10.87v.76h-10v7.06h8.79v.76h-8.79v7.44h10.25zm7.82.76V93.82h6.9a4.19 4.19 0 0 1 1.93.45 5.07 5.07 0 0 1 1.52 1.17 5.35 5.35 0 0 1 1 1.64 5.16 5.16 0 0 1 .35 1.87 5.72 5.72 0 0 1-.3 1.84 5.11 5.11 0 0 1-.84 1.56 4.71 4.71 0 0 1-1.3 1.13 4.05 4.05 0 0 1-1.68.54l4.22 6.58h-1l-4.16-6.47H214v6.47h-.8zm.83-7.23h6.21a3.38 3.38 0 0 0 1.59-.38 3.84 3.84 0 0 0 1.22-1 4.56 4.56 0 0 0 .77-1.42 5.05 5.05 0 0 0 .27-1.63 4.36 4.36 0 0 0-.32-1.64 4.67 4.67 0 0 0-.86-1.39 4.29 4.29 0 0 0-1.28-1 3.44 3.44 0 0 0-1.56-.37h-6v8.79zm19.04 9.14l.28-1.77H233v-1.89h.9v1.89l-.4 1.77h-.47zm32.65-6.26a4.22 4.22 0 0 1-.34 1.69 4.39 4.39 0 0 1-2.32 2.32 4.15 4.15 0 0 1-1.67.34h-7.82V93.82h7.61a3.31 3.31 0 0 1 1.58.38 4 4 0 0 1 1.21 1 4.52 4.52 0 0 1 .77 1.37 4.63 4.63 0 0 1 .26 1.53 4.46 4.46 0 0 1-.64 2.34 3.79 3.79 0 0 1-1.76 1.56 4.32 4.32 0 0 1 2.91 2.85 4.64 4.64 0 0 1 .21 1.4zM254.4 94.58v7.18h6.5a2.89 2.89 0 0 0 1.33-.31 3.37 3.37 0 0 0 1-.82 3.9 3.9 0 0 0 .68-1.15 3.63 3.63 0 0 0 .25-1.32 4 4 0 0 0-.24-1.36 3.83 3.83 0 0 0-.65-1.15 3.13 3.13 0 0 0-1-.79 2.8 2.8 0 0 0-1.29-.29h-6.58zm10.51 11.6a3.94 3.94 0 0 0-1-2.56 3.49 3.49 0 0 0-1.06-.82 2.92 2.92 0 0 0-1.32-.31h-7.13v7.35h7a3.12 3.12 0 0 0 1.37-.31 3.72 3.72 0 0 0 1.12-.83 3.88 3.88 0 0 0 .76-1.18 3.52 3.52 0 0 0 .26-1.34zm15.24 4.53A6.93 6.93 0 0 1 277 110a8.24 8.24 0 0 1-2.48-1.91 8.52 8.52 0 0 1-1.61-2.72 9 9 0 0 1-.57-3.14 8.71 8.71 0 0 1 .6-3.21 9 9 0 0 1 1.65-2.72 7.94 7.94 0 0 1 2.41-1.9 7 7 0 0 1 3.11-.7 6.85 6.85 0 0 1 3.19.74 8.08 8.08 0 0 1 2.47 1.95 9 9 0 0 1 1.59 2.73 8.88 8.88 0 0 1-1.69 9 8.05 8.05 0 0 1-2.48 1.87 6.94 6.94 0 0 1-3.04.72zm-7-8.51a8.24 8.24 0 0 0 .52 2.91 8 8 0 0 0 1.45 2.47 7 7 0 0 0 2.22 1.71 6.26 6.26 0 0 0 2.82.64 6.1 6.1 0 0 0 2.87-.67 7.28 7.28 0 0 0 2.21-1.76 7.86 7.86 0 0 0 1.42-2.48 8.35 8.35 0 0 0 .5-2.81 8.1 8.1 0 0 0-.53-2.91 8.23 8.23 0 0 0-1.46-2.47 7.1 7.1 0 0 0-2.22-1.71 6.18 6.18 0 0 0-2.78-.64 6.09 6.09 0 0 0-2.87.67 7.26 7.26 0 0 0-2.21 1.76 8.29 8.29 0 0 0-1.96 5.3zm23.37-6.82v15.22h-.82V93.82h.61l12.33 15.47V93.82h.83v16.78h-.8zm36.95-1.56h.71l7.21 16.77h-.87l-2.52-5.78h-8.41l-2.48 5.79h-.9zm4.3 10.28l-3.95-9.24-4 9.24h7.91zm-5.72-15.19h1l1.49 1.87-.57.31zm35.89 7.39a5.21 5.21 0 0 0-2-1.43 7.44 7.44 0 0 0-2.6-.41 6 6 0 0 0-3.87 1 3.37 3.37 0 0 0-1.21 2.72 3.12 3.12 0 0 0 .29 1.43 2.56 2.56 0 0 0 .91 1 5.71 5.71 0 0 0 1.58.67q1 .27 2.32.55t2.48.61a7.23 7.23 0 0 1 1.89.84 3.62 3.62 0 0 1 1.21 1.26 3.77 3.77 0 0 1 .42 1.87 4 4 0 0 1-.41 1.87 3.68 3.68 0 0 1-1.19 1.35 5.59 5.59 0 0 1-1.88.81 10.16 10.16 0 0 1-2.45.27 9.9 9.9 0 0 1-3.62-.63 9.14 9.14 0 0 1-3-1.93l.5-.59a7.9 7.9 0 0 0 2.69 1.82 9 9 0 0 0 3.43.61 6.9 6.9 0 0 0 3.72-.86 2.91 2.91 0 0 0 1.36-2.63 3.22 3.22 0 0 0-.33-1.52 2.88 2.88 0 0 0-1-1.06 6.91 6.91 0 0 0-1.7-.76q-1-.32-2.42-.6t-2.42-.59a6.56 6.56 0 0 1-1.77-.78 3.16 3.16 0 0 1-1.09-1.16 3.63 3.63 0 0 1-.37-1.72 4.41 4.41 0 0 1 .42-2A4 4 0 0 1 359 94.9a5.57 5.57 0 0 1 1.85-.89 8.88 8.88 0 0 1 2.41-.31 7.93 7.93 0 0 1 2.86.47 6.3 6.3 0 0 1 2.25 1.51zm13.94-2.48h.71l7.21 16.77h-.87l-2.48-5.79H378l-2.48 5.79h-.9zm4.3 10.28l-3.95-9.24-4 9.24h7.91zm8.22-10.28l6.76 15.76 6.73-15.76h.87l-7.21 16.77h-.8l-7.21-16.77h.85zm27.46 16.89a6.93 6.93 0 0 1-3.19-.73 8.23 8.23 0 0 1-2.48-1.91 8.56 8.56 0 0 1-1.61-2.72 9 9 0 0 1-.57-3.14 8.73 8.73 0 0 1 .6-3.21 9 9 0 0 1 1.65-2.72 8 8 0 0 1 2.48-1.88 7 7 0 0 1 3.11-.7 6.85 6.85 0 0 1 3.19.74 8.09 8.09 0 0 1 2.47 1.95 9 9 0 0 1 1.59 2.73 8.88 8.88 0 0 1-1.69 9 8 8 0 0 1-2.48 1.87 6.94 6.94 0 0 1-3.07.72zm-7-8.51a8.24 8.24 0 0 0 .52 2.91 8 8 0 0 0 1.45 2.47 7.05 7.05 0 0 0 2.17 1.72 6.26 6.26 0 0 0 2.82.64 6.1 6.1 0 0 0 2.87-.67 7.29 7.29 0 0 0 2.21-1.76 7.88 7.88 0 0 0 1.42-2.48 8.32 8.32 0 0 0 .5-2.81 8.1 8.1 0 0 0-.53-2.91 8.19 8.19 0 0 0-1.46-2.47 7.1 7.1 0 0 0-2.22-1.71 6.18 6.18 0 0 0-2.78-.64 6.1 6.1 0 0 0-2.87.67 7.29 7.29 0 0 0-2.21 1.76 8.29 8.29 0 0 0-1.91 5.29zm22.54 8.4V93.82h.83v16.78h-.83zm9.74 0V93.82H454a4.2 4.2 0 0 1 1.93.45 5.08 5.08 0 0 1 1.52 1.17 5.36 5.36 0 0 1 1 1.64 5.16 5.16 0 0 1 .35 1.87 5.74 5.74 0 0 1-.29 1.84 5.12 5.12 0 0 1-.84 1.56 4.73 4.73 0 0 1-1.3 1.13 4.05 4.05 0 0 1-1.68.54l4.21 6.57h-.9l-4.16-6.47H448v6.47h-.83zm.83-7.23h6.21a3.38 3.38 0 0 0 1.59-.38 3.84 3.84 0 0 0 1.22-1 4.54 4.54 0 0 0 .77-1.42 5.07 5.07 0 0 0 .27-1.63 4.35 4.35 0 0 0-.32-1.64 4.67 4.67 0 0 0-.86-1.39 4.29 4.29 0 0 0-1.28-1 3.44 3.44 0 0 0-1.56-.37h-6v8.79z"/><path class="cls-2" d="M11.69 72.79C3.73 72.79 0 67.85 0 60.19V1h5.14v59.09c0 5.54 1.71 8.17 7.46 8.17h3.53v4.54h-4.44zm45.98 0V68c-4.13 4.13-8 5.44-14.82 5.44-7.26 0-11.19-1.21-14.32-4.44A13.44 13.44 0 0 1 25 59.48c0-8.87 6.35-14 16.94-14h15.73V40c0-7.76-3.73-11.9-13.71-11.9-6.85 0-10.28 1.71-13.41 6.15l-3.73-3.23C31 25.31 36 23.6 44 23.6c12.9 0 18.85 5.75 18.85 15.93v33.26h-5.18zm0-23.19H42.54c-8.27 0-12.4 3.23-12.4 9.78s3.83 9.48 12.7 9.48c4.44 0 8.57-.4 12.1-3.73 1.81-1.71 2.72-4.84 2.72-9.27v-6.25zm72.48 23.19l-41.43-62.4v62.4h-5.45V1h5.44l41.43 62.2V1h5.44v71.79h-5.44zm57.97 0V67a17.89 17.89 0 0 1-14.32 6.35c-5.34 0-9.68-1.51-12.9-4.64s-5-7.76-5-13.51v-31h5.1v30.14c0 9.38 4.64 14.52 13.41 14.52s13.71-5.24 13.71-14.52V24.2h5.14v48.59h-5.14zm37.61 0c-7.66 0-11.69-5.34-11.69-12.7V28h-6.65v-3.8H214V8.67h5.14V24.2h11V28h-11v32.19c0 5.14 2.32 8.07 7.46 8.07h3.53v4.54h-4.44zm38.01-44.66c-8.37 0-13 7-13 14.72v29.94h-5.14V24.2h5.14v6.45c2.82-4.54 8.47-7.06 14.21-7.06 4.74 0 8.17 1.11 11.7 4.64L272.91 32c-2.91-3-5.14-3.87-9.17-3.87zm60.69 44.66c-7.66 0-11.69-5.34-11.69-12.7V28h-6.65v-3.8h6.65V8.67h5.14V24.2h11V28h-11v32.19c0 5.14 2.32 8.07 7.46 8.07h3.53v4.54h-4.44zm19.26-65.43V1H350v6.36h-6.35zm.61 65.43V24.2h5.14v48.59h-5.14zm54.94-4.74a19.75 19.75 0 0 1-27 0c-5.14-5.14-6-12.6-6-19.56s.91-14.42 6-19.56a19.75 19.75 0 0 1 27 0c5.14 5.14 6 12.6 6 19.56s-.86 14.42-6 19.56zm-3.43-35.79a14.36 14.36 0 0 0-20.16 0c-4 4-4.33 10.59-4.33 16.23s.3 12.2 4.33 16.23a14.36 14.36 0 0 0 20.16 0c4-4 4.33-10.58 4.33-16.23s-.3-12.19-4.33-16.22zm58.47 40.53V42.65c0-9.38-4.64-14.52-13.41-14.52s-13.71 5.24-13.71 14.52v30.14H422V24.2h5.14v5.75a17.89 17.89 0 0 1 14.32-6.35c5.34 0 9.68 1.51 12.9 4.64s5 7.76 5 13.51v31.04h-5.14z"/><path class="cls-3" d="M292.44 10.07a27.9 27.9 0 0 0-5.59-9.29s-3.3-2.5-3.81 1.47c0 0 2.25 2.44 4.57 8.56a19.45 19.45 0 0 1 3.44-.65c.47-.05.95-.08 1.39-.09z"/><path class="cls-4" d="M296.77 16.8v-.16c0-.2-.06-.41-.08-.62l-.05-.15-.12-.25a2.82 2.82 0 0 0-.17-.27l-.56-.63a3.82 3.82 0 0 0-.33-.22h-.06a3.91 3.91 0 0 0-.4-.21h-.06a4.69 4.69 0 0 0-.49-.19c-.18-.06-.37-.11-.58-.15h-.06c-.2 0-.42-.07-.64-.1h-1.98l-1 .1c-6.49.85-5.69 5.41-5.69 5.41s1.18 12.49.11 33.05C284 64.93 282 79 285 79.36a.91.91 0 0 0 .21 0h.15l.17-.06.15-.07.17-.11.15-.12.17-.16.17-.16.18-.2.17-.2.18-.24.17-.24.18-.29.17-.27.18-.32.18-.31.19-.36.17-.34c.07-.13.13-.26.19-.4l.18-.37.19-.43.17-.39.2-.46.17-.42.2-.49.17-.44.2-.53.17-.45.2-.57c.06-.15.11-.3.16-.46l.21-.6.16-.47.21-.63.15-.47.21-.66.15-.47.21-.7.14-.46.21-.72c0-.15.09-.3.13-.46s.14-.49.21-.74l.13-.45.2-.76c0-.15.08-.29.12-.45s.13-.52.2-.78l.11-.44.19-.79.1-.44c.06-.26.13-.53.19-.8l.1-.43.16-.78.09-.42.17-.81.09-.41.16-.8c0-.14.06-.27.08-.41l.16-.82.07-.37.15-.82.06-.35c.05-.3.1-.6.15-.89v-.25c.06-.37.08-.75.13-1.12a179.1 179.1 0 0 0 1.61-33.66z"/><path class="cls-5" d="M295.84 21.79c.2 5-.57 13.42-1.53 13.46s-1.75-8.33-2-13.31.64-5.74 1.6-5.78 1.72.66 1.93 5.63z"/></svg>