<?xml version="1.0" encoding="utf-8"?>
<!-- Generator: Adobe Illustrator 28.0.0, SVG Export Plug-In . SVG Version: 6.00 Build 0)  -->
<svg version="1.1" id="Calque_1" xmlns="http://www.w3.org/2000/svg" xmlns:xlink="http://www.w3.org/1999/xlink" x="0px" y="0px"
	 viewBox="0 0 2000 700" style="enable-background:new 0 0 2000 700;" xml:space="preserve">
<style type="text/css">
	.st0{fill:#E30613;}
	.st1{fill:#000091;}
</style>
<polygon class="st0" points="487.8,562 481.3,615.1 487.8,666.8 540.2,673.3 592.6,666.8 599.2,614.7 592.6,562 540.2,555.5 "/>
<polygon class="st0" points="369.7,562 363.1,615.1 369.7,666.8 422,673.3 474.4,666.8 481,614.7 474.4,562 422,555.5 "/>
<polygon class="st1" points="193,562 186.5,615.1 193,666.8 245.4,673.3 297.8,666.8 304.3,614.7 297.8,562 245.4,555.5 "/>
<polygon class="st1" points="13.4,438.8 6.8,491.9 13.4,543.6 65.8,550.1 118.1,543.6 124.7,491.6 118.1,438.8 65.8,432.3 "/>
<polygon class="st0" points="487.8,391.7 481.3,444.7 487.8,496.4 540.2,503 592.6,496.4 599.2,444.4 592.6,391.7 540.2,385.1 "/>
<polygon class="st0" points="369.7,444.2 363.1,497.2 369.7,548.9 422,555.5 474.4,548.9 481,496.9 474.4,444.2 422,437.6 "/>
<polygon class="st1" points="252.1,444.2 245.6,497.2 252.1,548.9 304.5,555.5 356.9,548.9 363.4,496.9 356.9,444.2 304.5,437.6 "/>
<polygon class="st1" points="134,387.6 127.4,440.6 134,492.3 186.3,498.9 238.7,492.3 245.3,440.3 238.7,387.6 186.3,381 "/>
<polygon class="st0" points="487.8,273.8 481.3,326.9 487.8,378.6 540.2,385.1 592.6,378.6 599.2,326.6 592.6,273.8 540.2,267.3 "/>
<polygon class="st0" points="369.7,326.3 363.1,379.4 369.7,431.1 422,437.6 474.4,431.1 481,379 474.4,326.3 422,319.8 "/>
<polygon class="st1" points="247.2,301.7 240.7,354.8 247.2,406.5 299.6,413 352,406.5 358.5,354.4 352,301.7 299.6,295.1 "/>
<polygon class="st1" points="78.2,267.3 90.2,319.4 114,365.7 165.5,354 212.5,329.9 200.8,278.7 176.6,231.4 125.2,243.2 "/>
<polygon class="st0" points="441.6,111.7 435,164.7 441.6,216.4 493.9,223 546.3,216.4 552.9,164.4 546.3,111.7 493.9,105.1 "/>
<polygon class="st0" points="316.9,204.7 328.9,256.8 352.7,303.1 404.2,291.4 451.2,267.3 439.5,216.2 415.3,168.8 363.9,180.6 "/>
<polygon class="st1" points="199.9,170.6 193.4,223.7 199.9,275.4 252.3,281.9 304.7,275.4 311.2,223.3 304.7,170.6 252.3,164.1 "/>
<polygon class="st1" points="86.7,73.7 98.7,125.8 122.5,172.1 174,160.4 221,136.3 209.3,85.2 185.2,37.9 133.7,49.6 "/>
<g>
	<path fill="#FFFFFF" d="M718.6,151.6V29.1h18.5V134h55.3v17.6H718.6z"/>
	<path fill="#FFFFFF" d="M796,151.6l46.5-122.5h20.1l45.7,122.5h-19.1l-11-29.5h-52l-11.1,29.5H796z M832.2,105.2h39.9l-13.4-38
		c-3.3-9-5.1-14.5-6.2-18.1h-0.3l-6.2,18.1L832.2,105.2z"/>
	<path fill="#FFFFFF" d="M960.5,151.6V29.1h76.2v17.5H979v31.5h54.1v17.3H979v56.2H960.5z"/>
	<path fill="#FFFFFF" d="M1034.7,151.6l46.5-122.5h20.1l45.7,122.5h-19.1l-11-29.5h-52l-11.1,29.5H1034.7z M1071,105.2h39.9l-13.4-38
		c-3.3-9-5.1-14.5-6.2-18.1h-0.3l-6.2,18.1L1071,105.2z"/>
	<path fill="#FFFFFF" d="M1161.8,151.6V29.1h48c27.4,0,35.8,19.7,35.8,33.7c0,11-4.5,22.4-12.7,26.5c8.5,2.8,16.5,13.9,16.5,27.2
		c0,18-9.6,35.1-38,35.1H1161.8z M1179.8,134.2h31.6c14.4,0,19.3-8.1,19.3-18.2c0-9.1-5.3-17.9-19.5-17.9h-31.5V134.2z M1180.3,81
		h28.3c15.4,0,18.3-10,18.3-17.9c0-4.6-1.5-8.4-4.6-11.7c-3-3.3-7.8-5-14.3-5h-27.8V81z"/>
	<path fill="#FFFFFF" d="M1270.6,151.6V29.1h44.7c26.1,0,37.2,19.2,37.2,38c0,17.1-11.6,31.6-30.1,38l37.2,45.2v1.3h-21.8l-48.8-59.8v59.8H1270.6z
		 M1289.1,65.3l22.4,26c9.6-2.4,22.1-10.3,22.1-24.1c0-6-1.8-10.9-5.3-14.7c-3.5-3.8-8.7-5.8-15.5-5.8h-23.7V65.3z"/>
	<path fill="#FFFFFF" d="M1376.5,151.6V29.1h18.5v122.5H1376.5z"/>
	<path fill="#FFFFFF" d="M1476.1,25.8c34.8,0,61.2,27.9,61.2,64.6c0,25.5-13.1,46.7-32.5,57.4l26.4,32.8v1.3h-21.6l-21.8-27.9
		c-3.8,0.7-7.7,1.1-11.7,1.1c-34.8,0-61.2-27.9-61.2-64.6C1414.9,53.8,1441.2,25.8,1476.1,25.8z M1476.1,137
		c24.5,0,42.3-20.8,42.3-46.6s-17.8-46.8-42.3-46.8c-24.5,0-42.3,21-42.3,46.8C1433.7,116.3,1451.6,137,1476.1,137z"/>
	<path fill="#FFFFFF" d="M1557.2,151.6V29.1h18.5V134h48.8V29.1h18.5v122.5H1557.2z"/>
	<path fill="#FFFFFF" d="M1670.8,151.6V29.1h78.8v17.5h-60.3v31.5h56.9v17.3h-56.9V134h61.2v17.6H1670.8z"/>
</g>
<g>
	<path fill="#FFFFFF" d="M718.6,323.5V201h18.8l45.3,72.8c6.7,11,10.3,17.2,12.6,21.4h0.2c-0.4-5.4-0.5-10.4-0.5-22.1V201h18.5v122.5h-19.1
		l-47.2-74.6c-5.7-9-8.8-15.4-10.4-19h-0.2c0.4,8.3,0.5,10.8,0.5,19v74.6H718.6z"/>
	<path fill="#FFFFFF" d="M841.4,323.5V201h18.5v104.9h48.8V201h18.5v122.5H841.4z"/>
	<path fill="#FFFFFF" d="M955,323.5V201h24.9l23.1,55.2l6.4,16.5h0.2l6.4-16.5L1039,201h25.1v122.5h-17.6V241c0-4.2,0.1-11.2,0.5-17.5h-0.2
		c-0.8,3.2-4.2,12.1-6.5,17.5l-21.8,50.9h-17.3l-22.1-50.5c-2.2-5.4-5.4-13.7-6.7-17.9h-0.2c0.1,1.7,0.3,3.8,0.3,6.2
		c0.1,2.4,0.2,6.2,0.2,11.3v82.5H955z"/>
	<path fill="#FFFFFF" d="M1092,323.5V201h78.8v17.5h-60.3V250h56.9v17.3h-56.9v38.6h61.2v17.6H1092z M1119.1,190.6l13.5-22.1h23.7l-21.1,22.1
		H1119.1z"/>
	<path fill="#FFFFFF" d="M1193.6,323.5V201h44.7c26.1,0,37.2,19.2,37.2,38c0,17.1-11.6,31.6-30.1,38l37.2,45.2v1.3h-21.8l-48.8-59.8v59.8H1193.6z
		 M1212.1,237.2l22.4,26c9.6-2.4,22.1-10.3,22.1-24.1c0-6-1.8-10.9-5.3-14.7c-3.5-3.8-8.7-5.8-15.5-5.8h-23.7V237.2z"/>
	<path fill="#FFFFFF" d="M1299.4,323.5V201h18.5v122.5H1299.4z"/>
	<path fill="#FFFFFF" d="M1399.1,197.7c34.8,0,61.2,27.9,61.2,64.6c0,25.5-13.1,46.7-32.5,57.4l26.4,32.8v1.3h-21.6l-21.8-27.9
		c-3.8,0.7-7.7,1.1-11.7,1.1c-34.8,0-61.2-27.9-61.2-64.6C1337.9,225.7,1364.2,197.7,1399.1,197.7z M1399.1,308.9
		c24.5,0,42.3-20.8,42.3-46.6s-17.8-46.8-42.3-46.8c-24.5,0-42.3,21-42.3,46.8C1356.7,288.2,1374.6,308.9,1399.1,308.9z"/>
	<path fill="#FFFFFF" d="M1480.2,323.5V201h18.5v104.9h48.8V201h18.5v122.5H1480.2z"/>
	<path fill="#FFFFFF" d="M1593.8,323.5V201h78.8v17.5h-60.3V250h56.9v17.3h-56.9v38.6h61.2v17.6H1593.8z"/>
</g>
<g>
	<path fill="#FFFFFF" d="M718.6,495.4V372.9h36.6c21.2,0,36,7.9,45.4,19.4c4.6,5.7,8,12.2,10.1,19.6c2.1,7.4,3.2,14.8,3.2,22.2
		c0,37.4-20.4,61.2-59.6,61.2H718.6z M737.1,477.8h15.7c29,0,42.5-14.8,42.5-43.7c0-30.4-16.9-43.7-40.2-43.7h-18V477.8z"/>
	<path fill="#FFFFFF" d="M834.7,495.4V372.9h78.8v17.5h-60.3v31.5H910v17.3h-56.9v38.6h61.2v17.6H834.7z"/>
</g>
<g>
	<path fill="#FFFFFF" d="M930.4,469.4h1.3c4.7,5,18.9,11.5,32.3,11.5c7.6,0,13.4-1.9,17.4-5.5c4-3.7,6.1-8.4,6.1-14s-1.7-9.8-5.1-12.7
		c-3.3-2.9-7.8-5.4-13.2-7.4l-13-5c-13.4-4.8-25.7-14.4-25.7-33.2c0-18.3,15.6-33.5,37.7-33.5c11.9,0,24.2,4.6,29.7,8.7v19.4h-1.2
		c-5-4.6-15.5-10.4-27.3-10.4c-6.2,0-11.1,1.5-14.8,4.6c-3.5,3.1-5.3,7-5.3,11.6c0,4.4,1.3,7.7,4,9.9c2.8,2.1,6.4,4.1,11,5.8
		l15.4,5.9c12.9,4.8,26.6,14.1,26.6,35.3c0,22.9-17.5,38.2-42.1,38.2c-6.7,0-13.2-1-19.3-2.9c-6.2-2-11-4.4-14.4-7.1V469.4z"/>
</g>
<g>
	<path fill="#FFFFFF" d="M1067.8,495.4V372.9h24.9l23.1,55.2l6.4,16.5h0.2l6.4-16.5l22.9-55.2h25.1v122.5h-17.6v-82.5c0-4.2,0.1-11.2,0.5-17.5h-0.2
		c-0.8,3.2-4.2,12.1-6.5,17.5l-21.8,50.9H1114l-22.1-50.5c-2.2-5.4-5.4-13.7-6.7-17.9h-0.2c0.1,1.7,0.3,3.8,0.3,6.2
		c0.1,2.4,0.2,6.2,0.2,11.3v82.5H1067.8z"/>
	<path fill="#FFFFFF" d="M1204.8,495.4V372.9h18.5v122.5H1204.8z"/>
	<path fill="#FFFFFF" d="M1251.2,495.4V372.9h18.8l45.3,72.8c6.7,11,10.3,17.2,12.6,21.4h0.2c-0.4-5.4-0.5-10.4-0.5-22.1v-72.1h18.5v122.5h-19.1
		l-47.2-74.6c-5.7-9-8.8-15.4-10.4-19h-0.2c0.4,8.3,0.5,10.8,0.5,19v74.6H1251.2z"/>
	<path fill="#FFFFFF" d="M1374,495.4V372.9h18.5v122.5H1374z"/>
</g>
<g>
	<path fill="#FFFFFF" d="M1414.4,469.4h1.3c4.7,5,18.9,11.5,32.3,11.5c7.6,0,13.4-1.9,17.4-5.5c4-3.7,6.1-8.4,6.1-14s-1.7-9.8-5.1-12.7
		c-3.3-2.9-7.8-5.4-13.2-7.4l-13-5c-13.4-4.8-25.7-14.4-25.7-33.2c0-18.3,15.6-33.5,37.7-33.5c11.9,0,24.2,4.6,29.7,8.7v19.4h-1.2
		c-5-4.6-15.5-10.4-27.3-10.4c-6.2,0-11.1,1.5-14.8,4.6c-3.5,3.1-5.3,7-5.3,11.6c0,4.4,1.3,7.7,4,9.9c2.8,2.1,6.4,4.1,11,5.8
		l15.4,5.9c12.9,4.8,26.6,14.1,26.6,35.3c0,22.9-17.5,38.2-42.1,38.2c-6.7,0-13.2-1-19.3-2.9c-6.2-2-11-4.4-14.4-7.1V469.4z"/>
</g>
<g>
	<path fill="#FFFFFF" d="M1498.4,390.4v-17.5h95.8v17.5h-38.6v105h-18.5v-105H1498.4z"/>
	<path fill="#FFFFFF" d="M1611.2,495.4V372.9h78.8v17.5h-60.3v31.5h56.9v17.3h-56.9v38.6h61.2v17.6H1611.2z M1625.5,340.3h23.6l13.5,22.1h-16
		L1625.5,340.3z"/>
	<path fill="#FFFFFF" d="M1712.7,495.4V372.9h44.7c26.1,0,37.2,19.2,37.2,38c0,17.1-11.6,31.6-30.1,38l37.2,45.2v1.3h-21.8l-48.8-59.8v59.8H1712.7z
		 M1731.2,409.1l22.4,26c9.6-2.4,22.1-10.3,22.1-24.1c0-6-1.8-10.9-5.3-14.7c-3.5-3.8-8.7-5.8-15.5-5.8h-23.7V409.1z"/>
	<path fill="#FFFFFF" d="M1818.6,495.4V372.9h78.8v17.5H1837v31.5h56.9v17.3H1837v38.6h61.2v17.6H1818.6z"/>
</g>
<g>
	<path fill="#FFFFFF" d="M1914.3,469.4h1.3c4.7,5,18.9,11.5,32.3,11.5c7.6,0,13.4-1.9,17.4-5.5c4-3.7,6.1-8.4,6.1-14s-1.7-9.8-5.1-12.7
		c-3.3-2.9-7.8-5.4-13.2-7.4l-13-5c-13.4-4.8-25.7-14.4-25.7-33.2c0-18.3,15.6-33.5,37.7-33.5c11.9,0,24.2,4.6,29.7,8.7v19.4h-1.2
		c-5-4.6-15.5-10.4-27.3-10.4c-6.2,0-11.1,1.5-14.8,4.6c-3.5,3.1-5.3,7-5.3,11.6c0,4.4,1.3,7.7,4,9.9c2.8,2.1,6.4,4.1,11.1,5.8
		l15.4,5.9c12.9,4.8,26.6,14.1,26.6,35.3c0,22.9-17.5,38.2-42.1,38.2c-6.7,0-13.2-1-19.3-2.9c-6.2-2-11-4.4-14.4-7.1V469.4z"/>
</g>
<g>
	<g>
		<path fill="#FFFFFF" d="M712.7,641.3h1.3c4.7,5,18.9,11.5,32.3,11.5c7.6,0,13.4-1.9,17.4-5.5c4-3.7,6.1-8.4,6.1-14c0-5.6-1.7-9.8-5.1-12.7
			c-3.3-2.9-7.8-5.4-13.2-7.4l-13-5c-13.4-4.8-25.7-14.4-25.7-33.2c0-18.3,15.6-33.5,37.7-33.5c11.9,0,24.2,4.6,29.7,8.7v19.4h-1.2
			c-5-4.6-15.5-10.4-27.3-10.4c-6.2,0-11.1,1.5-14.8,4.6c-3.5,3.1-5.3,7-5.3,11.6c0,4.4,1.3,7.7,4,9.9c2.8,2.1,6.4,4.1,11,5.8
			l15.4,5.9c12.9,4.8,26.6,14.1,26.6,35.3c0,22.9-17.5,38.2-42.1,38.2c-6.7,0-13.2-1-19.3-2.9c-6.2-2-11-4.4-14.4-7.1V641.3z"/>
	</g>
	<g>
		<path fill="#FFFFFF" d="M861,541.5c34.8,0,61.2,27.9,61.2,64.6c0,36.6-26.4,64.6-61.2,64.6c-34.8,0-61.2-27.9-61.2-64.6
			C799.8,569.4,826.1,541.5,861,541.5z M861,652.7c24.5,0,42.3-20.8,42.3-46.6s-17.8-46.8-42.3-46.8c-24.5,0-42.3,21-42.3,46.8
			C818.6,631.9,836.5,652.7,861,652.7z"/>
		<path fill="#FFFFFF" d="M951.7,560c10.9-11.4,26.2-18.5,43.8-18.5c12.7,0,24.3,3,34,9.9V571h-1.2c-9.7-8.6-19.8-11.7-32.6-11.7
			c-25.1,0-42.5,20.6-42.5,46.8c0,26.3,16.7,46.4,42.3,46.4c13.2,0,27.2-5.6,33.7-12.4h1.2v19.7c-9.9,7.2-21.6,10.8-35,10.8
			c-35.3,0-61-27.2-61-64.6C934.4,587.5,940.9,571.4,951.7,560z"/>
		<path fill="#FFFFFF" d="M1051.4,667.3V544.8h18.5v122.5H1051.4z"/>
		<path fill="#FFFFFF" d="M1084.3,667.3l46.5-122.5h20.1l45.7,122.5h-19.1l-11-29.5h-52l-11.1,29.5H1084.3z M1120.6,620.9h39.9l-13.4-38
			c-3.3-9-5.1-14.5-6.2-18.1h-0.3l-6.2,18.1L1120.6,620.9z"/>
		<path fill="#FFFFFF" d="M1209.2,667.3V544.8h18.5v104.9h48.8V544.8h18.5v122.5H1209.2z"/>
		<path fill="#FFFFFF" d="M1308.3,667.3V666l44-62.9l-39.7-57.1v-1.2h20.8l29.9,43.7l30-43.7h20.4v1.2l-39.9,56.7l43.9,63.3v1.3h-20.8l-34-50.1
			l-34.2,50.1H1308.3z"/>
	</g>
</g>
</svg>
