<?xml version="1.0" encoding="utf-8"?>
<!-- Generator: Adobe Illustrator 24.3.0, SVG Export Plug-In . SVG Version: 6.00 Build 0)  -->
<svg version="1.1" id="Calque_1" xmlns="http://www.w3.org/2000/svg" xmlns:xlink="http://www.w3.org/1999/xlink" x="0px" y="0px"
	 viewBox="0 0 283.5 283.5" style="enable-background:new 0 0 283.5 283.5;" xml:space="preserve">
<style type="text/css">
	.st0{fill:#FFFFFF;}
</style>
<g>
	<path class="st0" d="M115.6,267.2c0-0.7,0.1-1.4,0.1-2.2c0-35.4,0-70.8,0-106.3c0-0.7,0-1.4,0-2.4c-12,0-23.8,0-35.8,0
		c0-14.8,0-29.3,0-44.1c11.8,0,23.7,0,35.8,0c0-1.2,0-2.1,0-3c0.1-12.9-0.2-25.8,0.4-38.7c0.8-15.3,6-29,18.1-39.3
		c9.5-8.1,20.8-11.7,33-11.8c11.6-0.1,23.2,0.9,34.8,1.4c0.5,0,0.9,0.2,1.5,0.3c0,13,0,26,0,39.3c-1,0-1.9,0-2.8,0
		c-8.5,0.1-17-0.1-25.4,0.5c-9.1,0.7-14.4,5.5-14.9,14.5c-0.7,12.1-0.2,24.3-0.2,36.7c13,0,26.2,0,39.7,0
		c-1.8,14.8-3.7,29.3-5.5,44.1c-11.5,0-22.8,0-34.4,0c-0.1,1-0.2,1.7-0.2,2.5c0,35.4,0,70.8,0,106.3c0,0.7,0.1,1.4,0.2,2.1
		C145.3,267.2,130.4,267.2,115.6,267.2z"/>
</g>
</svg>
