<?xml version="1.0" encoding="utf-8"?>
<!-- Generator: Adobe Illustrator 24.3.0, SVG Export Plug-In . SVG Version: 6.00 Build 0)  -->
<svg version="1.1" id="Calque_1" xmlns="http://www.w3.org/2000/svg" xmlns:xlink="http://www.w3.org/1999/xlink" x="0px" y="0px"
	 viewBox="0 0 283.5 283.5" style="enable-background:new 0 0 283.5 283.5;" xml:space="preserve">
<style type="text/css">
	.st0{fill:#FFFFFF;}
</style>
<g>
	<g>
		<path class="st0" d="M200.1,262.8c-38.9,0-77.8,0-116.7,0c-0.8-0.1-1.5-0.3-2.3-0.4c-6.5-0.7-12.9-2.2-18.8-5
			c-25.7-12.1-39.5-32.5-39.9-60.9c-0.5-35.5-0.1-70.9-0.1-106.4c0-11.5,2.5-22.4,8.4-32.4C43.9,35.5,63.6,24,89.6,23.9
			c34.8-0.2,69.7-0.1,104.5,0c4.5,0,9.1,0.2,13.4,1.2c27.1,6,44.4,22.4,51.8,49.1c1,3.5,1.3,7.2,2,10.7c0,38.9,0,77.8,0,116.7
			c-0.4,2.4-0.6,4.9-1.2,7.3c-6.1,27.1-22.5,44.4-49.2,51.9C207.4,261.8,203.7,262.2,200.1,262.8z M142,45c-17.3,0-34.7,0-52,0
			c-5.5,0-10.9,0.6-16,2.4C55,54.2,43.6,70.5,43.5,91.1c-0.1,34.8-0.1,69.7,0.1,104.5c0,5.2,0.8,10.6,2.4,15.5
			c6.4,19,22.9,30.4,43.4,30.5c34.8,0.1,69.7,0.1,104.5-0.1c5.2,0,10.6-0.8,15.5-2.4c19-6.4,30.4-22.7,30.5-43.2
			c0.1-35.1,0.1-70.2,0-105.2c0-15.7-6.4-28.3-19.1-37.5c-8.1-5.9-17.3-8.2-27.2-8.2C176.5,45.1,159.2,45,142,45z"/>
		<path class="st0" d="M203.4,143.4c0,33.8-27.9,61.7-61.7,61.6c-33.9-0.1-61.7-28-61.5-61.7c0.2-33.9,27.8-61.4,61.5-61.5
			C175.6,81.7,203.4,109.5,203.4,143.4z M141.7,103c-22.3,0.2-40.4,18.3-40.2,40.4c0.2,22.3,18.3,40.4,40.4,40.2
			c22.3-0.2,40.4-18.3,40.2-40.4C182,120.9,163.8,102.8,141.7,103z"/>
		<path class="st0" d="M206.1,94.8c-8.5,0.1-15.7-7-15.7-15.5c0-8.4,6.9-15.4,15.4-15.5c8.6-0.1,15.7,6.9,15.7,15.5
			C221.5,87.8,214.5,94.8,206.1,94.8z"/>
	</g>
</g>
</svg>
