<svg xmlns="http://www.w3.org/2000/svg" xmlns:xlink="http://www.w3.org/1999/xlink" width="1080" zoomAndPan="magnify" viewBox="0 0 810 809.999993" height="1080" preserveAspectRatio="xMidYMid meet" version="1.0"><rect x="-81" width="972" fill="#ffffff" y="-80.999999" height="971.999992" fill-opacity="1"/><rect x="-81" width="972" fill="#ffffff" y="-80.999999" height="971.999992" fill-opacity="1"/><path fill="#de285e" d="M 351.773438 251.5 L 455.996094 147.277344 C 455.996094 147.277344 560.222656 43.050781 664.449219 147.277344 C 768.675781 251.5 664.449219 355.726562 664.449219 355.726562 L 525.480469 494.695312 C 525.480469 494.695312 421.253906 598.921875 317.03125 494.695312 C 297.488281 475.152344 285.378906 449.183594 285.378906 449.183594 L 343.625 391.027344 C 343.625 391.027344 341.28125 414.71875 369.144531 442.582031 C 369.144531 442.582031 421.253906 494.695312 473.367188 442.582031 L 612.335938 303.613281 C 612.335938 303.613281 664.449219 251.5 612.335938 199.390625 C 560.222656 147.277344 508.109375 199.390625 508.109375 199.390625 L 443.335938 264.164062 C 443.335938 264.164062 411.128906 237.742188 345.257812 258.015625 Z M 351.773438 251.5 " fill-opacity="1" fill-rule="nonzero"/><path fill="#de285e" d="M 453.304688 564.179688 L 349.078125 668.40625 C 349.078125 668.40625 244.855469 772.628906 140.628906 668.40625 C 36.402344 564.179688 140.628906 459.953125 140.628906 459.953125 L 279.59375 320.984375 C 279.59375 320.984375 383.820312 216.761719 488.046875 320.984375 C 507.589844 340.527344 519.695312 366.496094 519.695312 366.496094 L 461.433594 424.671875 C 461.433594 424.671875 463.78125 400.960938 435.917969 373.097656 C 435.917969 373.097656 383.804688 320.984375 331.691406 373.097656 L 192.722656 512.066406 C 192.722656 512.066406 140.609375 564.179688 192.722656 616.292969 C 244.835938 668.40625 296.949219 616.292969 296.949219 616.292969 L 361.726562 551.515625 C 361.726562 551.515625 393.929688 577.9375 459.800781 557.664062 Z M 453.304688 564.179688 " fill-opacity="1" fill-rule="nonzero"/></svg>