<?xml version="1.0" encoding="utf-8"?>
<!-- Generator: Adobe Illustrator 24.3.0, SVG Export Plug-In . SVG Version: 6.00 Build 0)  -->
<svg version="1.1" id="Calque_1" xmlns="http://www.w3.org/2000/svg" xmlns:xlink="http://www.w3.org/1999/xlink" x="0px" y="0px"
	 viewBox="0 0 320.7 314.7" style="enable-background:new 0 0 320.7 314.7;" xml:space="preserve">
<style type="text/css">
	.st0{fill:#FFFFFF;}
</style>
<g>
	<path class="st0" d="M311.2,299.8c-9.6,0-17.9,0-26.2,0c-18.8,0-37.7-0.1-56.5,0.1c-4.1,0-6.6-1.2-9-4.6
		c-25.6-34.7-51.4-69.2-77.2-103.8c-0.7-0.9-1.4-1.8-2.6-3.2c-5.6,5.9-11,11.7-16.3,17.5c-28,30.1-56.1,60.2-84,90.4
		c-2.5,2.7-5,3.9-8.6,3.7c-6.1-0.3-12.2-0.1-19.7-0.1c39.8-42.7,78.6-84.3,117.9-126.3C89.6,121,50.6,68.6,11.1,15.6
		c2.4-0.1,4-0.3,5.5-0.3c25.3,0,50.7,0.1,76-0.1c3.8,0,6,1.3,8.2,4.2c24.8,33.2,49.8,66.3,74.7,99.4c0.6,0.8,1.3,1.5,2.1,2.4
		c13.5-14.4,26.8-28.6,40-42.9c18.7-20.1,37.4-40.2,56.3-60.2c1.5-1.6,4.2-2.6,6.4-2.7c6.3-0.4,12.6-0.1,20.4-0.1
		C262.7,56.1,225.6,96,188.3,136C229.1,190.4,269.8,244.6,311.2,299.8z M48.3,33.5c1.7,2.3,2.6,3.7,3.6,5
		c15.5,20.6,31,41.2,46.5,61.8c44.2,58.7,88.4,117.3,132.4,176c2.2,2.9,4.4,4,7.9,3.9c10.2-0.2,20.3-0.1,30.5-0.1
		c1.4,0,2.8-0.2,4.9-0.4c-1.7-2.4-3-4.1-4.3-5.8c-26.5-35.5-53.1-70.9-79.6-106.4C157.5,123.9,124.8,80.2,92,36.5
		c-1-1.3-2.7-2.8-4.2-2.9C75,33.4,62.2,33.5,48.3,33.5z"/>
</g>
</svg>
