<svg width="102" height="55" viewBox="0 0 102 55" fill="none" xmlns="http://www.w3.org/2000/svg">
<g clip-path="url(#clip0_903_35)">
<path d="M71.743 26.221L84.6983 25.7596C85.7126 24.9434 86.3711 24.1093 86.5846 23.5237C86.7982 22.9027 86.7982 22.7962 86.5846 22.4413C86.3711 22.0864 84.4669 18.4663 84.4669 18.4663H83.2212C83.2212 18.4663 82.8475 18.4663 82.545 18.8212C82.2425 19.1939 81.0502 20.3828 80.4273 20.6313C80.196 20.8442 79.6977 20.9862 79.0927 20.9862C77.3131 20.9862 74.6081 19.7263 74.8395 15.1125C75.4089 8.29831 80.2672 8.29831 80.2672 8.29831C80.2672 8.29831 80.3383 8.28057 80.4451 8.28057C80.9434 8.28057 82.4026 8.51126 84.0398 10.9778H85.2855L88.4532 5.76074C88.4532 5.76074 88.7201 5.03319 87.9905 4.32337C87.2609 3.59582 85.2144 0.809814 79.9113 0.809814C74.6259 0.809814 68.8601 5.24613 67.7034 13.0895C66.9382 18.3599 68.1305 23.5237 71.743 26.221Z" fill="red"/>
<path d="M18.285 1.46631C18.285 1.46631 30.2081 1.48405 30.7954 1.48405C31.3648 1.48405 36.6501 1.48405 36.6501 8.67088C36.6501 15.84 32.308 17.437 32.308 17.437L35.1019 27.4986H27.5032L25.5457 19.1938C25.5457 19.1938 25.4033 18.5727 24.6559 18.5727C23.9263 18.5727 23.7839 19.3535 23.7839 19.3535L23.161 27.5696H15.2598L18.285 1.46631ZM24.3178 13.675H26.56C26.56 13.675 28.9446 13.4621 29.087 10.5164C29.2472 7.57068 27.343 6.78989 26.7202 6.78989C26.3109 6.78989 24.905 6.78989 24.905 6.78989L24.3178 13.675Z" fill="red"/>
<path d="M49.908 38.6073C49.5165 38.3589 49.0539 38.2347 48.4844 38.2524C47.9327 38.2701 47.4344 38.4121 46.9718 38.696C46.5091 38.98 46.1354 39.3526 45.8328 39.8317C45.5303 40.3108 45.3346 40.861 45.2634 41.482C45.1922 42.0854 45.2278 42.6177 45.4057 43.0969C45.5837 43.576 45.8684 43.9309 46.2599 44.1793C46.6514 44.4277 47.1141 44.552 47.6658 44.5342C48.2353 44.5165 48.7335 44.3745 49.1962 44.0906C49.6589 43.8067 50.0326 43.434 50.3351 42.9371C50.6199 42.4403 50.8156 41.8902 50.8868 41.2868C50.958 40.6658 50.9224 40.1334 50.7444 39.672C50.5665 39.1929 50.2818 38.8557 49.908 38.6073Z" fill="red"/>
<path d="M90.2327 37.2765C89.8412 37.0281 89.3786 36.9038 88.8091 36.9216C88.2574 36.9393 87.7592 37.0813 87.2965 37.3652C86.8338 37.6491 86.4601 38.0218 86.1575 38.5009C85.855 38.98 85.6593 39.5301 85.5881 40.1512C85.5169 40.7546 85.5525 41.2869 85.7304 41.766C85.9084 42.2452 86.1931 42.6001 86.5846 42.8485C86.9761 43.0969 87.4388 43.2212 87.9905 43.2034C88.56 43.1857 89.0582 43.0437 89.5209 42.7598C89.9836 42.4759 90.3573 42.1032 90.6421 41.6063C90.9268 41.1095 91.1225 40.5594 91.1937 39.956C91.2649 39.3349 91.2293 38.8026 91.0513 38.3412C90.909 37.8798 90.6243 37.5249 90.2327 37.2765Z" fill="red"/>
<path d="M98.7391 28.3683L3.06962 31.7576C1.80613 31.8108 0.809571 32.8578 0.845163 34.1355L1.46801 51.8452C1.5214 53.1051 2.57134 54.0989 3.85263 54.0634L99.5221 50.674C100.786 50.6208 101.782 49.5738 101.747 48.2962L101.124 30.5864C101.07 29.3088 100.003 28.315 98.7391 28.3683ZM7.91004 49.6271C7.92784 50.0352 7.60752 50.3724 7.19822 50.3901L6.09488 50.4256C5.68558 50.4434 5.34747 50.1239 5.32967 49.7158L4.83139 35.9277C4.8136 35.5196 5.13392 35.1824 5.54322 35.1647L6.64655 35.1292C7.05585 35.1114 7.39397 35.4309 7.41176 35.839L7.91004 49.6271ZM10.6862 49.5206C10.704 49.9287 10.3836 50.2659 9.97434 50.2836C9.56504 50.3014 9.22692 49.982 9.20913 49.5738L8.71085 35.7858C8.69305 35.3776 9.01337 35.0405 9.42267 35.0227C9.83197 35.005 10.1701 35.3244 10.1879 35.7325L10.6862 49.5206ZM15.4732 49.3431C15.491 49.7513 15.1707 50.0884 14.7614 50.1062L13.658 50.1417C13.2487 50.1594 12.9106 49.84 12.8928 49.4319L12.3946 35.6438C12.3768 35.2357 12.6971 34.8985 13.1064 34.8808L14.2097 34.8453C14.619 34.8275 14.9571 35.1469 14.9749 35.5551L15.4732 49.3431ZM18.623 49.2367C18.6408 49.6448 18.3205 49.982 17.9112 49.9997C17.5019 50.0175 17.1638 49.6981 17.146 49.2899L16.6477 35.5018C16.6299 35.0937 16.9502 34.7565 17.3595 34.7388C17.7688 34.7211 18.107 35.0405 18.1248 35.4486L18.623 49.2367ZM21.933 49.1302C21.9508 49.5383 21.6305 49.8755 21.2212 49.8933L20.1179 49.9287C19.7086 49.9465 19.3705 49.6271 19.3527 49.2189L18.8544 35.4309C18.8366 35.0227 19.1569 34.6856 19.5662 34.6678L20.6695 34.6323C21.0788 34.6146 21.417 34.934 21.4347 35.3421L21.933 49.1302ZM25.0829 49.006C25.1007 49.4141 24.7803 49.7513 24.371 49.769C23.9617 49.7868 23.6236 49.4674 23.6058 49.0592L23.0897 35.2712C23.072 34.863 23.3923 34.5259 23.8016 34.5081C24.2109 34.4904 24.549 34.8098 24.5668 35.2179L25.0829 49.006ZM37.8779 48.0477C37.006 48.4381 36.0806 48.6688 35.0662 48.6866C33.7849 48.7221 32.6638 48.4736 31.7028 47.9058C30.7419 47.3379 30.0301 46.5394 29.5674 45.5102C29.1047 44.4809 28.9623 43.3098 29.1225 41.9966C29.3004 40.6657 29.7453 39.4768 30.4927 38.4121C31.2402 37.3474 32.1655 36.4956 33.2867 35.8745C34.4078 35.2357 35.6179 34.8985 36.917 34.863C37.8957 34.8275 38.7499 34.9872 39.5151 35.3066C40.2804 35.6261 40.9388 36.1407 41.4727 36.8327L38.6254 39.5833C38.3762 39.2461 38.0737 38.9977 37.7178 38.8557C37.3619 38.696 36.9348 38.6428 36.4365 38.6605C35.867 38.6782 35.351 38.8202 34.8883 39.1041C34.4256 39.3881 34.0341 39.7607 33.7316 40.2221C33.429 40.7012 33.2333 41.2336 33.1443 41.8546C33.0731 42.4757 33.1087 43.0081 33.3045 43.4695C33.4824 43.9308 33.7849 44.2857 34.1942 44.5519C34.6035 44.8181 35.084 44.9246 35.6179 44.9068C36.134 44.8891 36.5967 44.7826 37.0238 44.5697C37.4508 44.3745 37.8246 44.0905 38.1627 43.7356L40.2982 46.3265C39.5507 47.0718 38.7499 47.6396 37.8779 48.0477ZM54.8906 41.1271C54.7126 42.4402 54.2678 43.6292 53.5381 44.6939C52.8085 45.7586 51.8831 46.6281 50.7798 47.2669C49.6765 47.9058 48.4842 48.2429 47.1851 48.2962C45.9038 48.3317 44.7827 48.0655 43.8395 47.4976C42.8785 46.9298 42.1845 46.1135 41.7218 45.0843C41.2591 44.0551 41.1168 42.8839 41.2769 41.5707C41.4549 40.2576 41.8998 39.0864 42.6294 38.0217C43.359 36.9747 44.2844 36.1229 45.3877 35.4841C46.491 34.8453 47.6834 34.5081 48.9824 34.4549C50.2815 34.4194 51.4026 34.6678 52.3458 35.2357C53.289 35.8035 54.0008 36.6021 54.4635 37.6135C54.9084 38.6605 55.0508 39.8317 54.8906 41.1271ZM67.8458 47.3202L63.9308 47.4444L64.9096 39.9027C64.9985 39.2106 64.874 38.6605 64.5181 38.2524C64.1799 37.8442 63.6995 37.649 63.0766 37.6668C62.6495 37.6845 62.258 37.791 61.9199 37.9862C61.564 38.1814 61.2792 38.4653 61.0479 38.8202C60.8166 39.1751 60.6742 39.5833 60.603 40.0446L59.6242 47.5864L55.7092 47.7106L57.4176 34.4726L61.3326 34.3484L61.1903 35.3954C61.4928 35.1292 61.8309 34.8985 62.1868 34.6856C63.0054 34.2419 63.8952 33.9935 64.8384 33.958C65.7638 33.9225 66.5468 34.1355 67.1874 34.5791C67.828 35.0227 68.3085 35.6083 68.6289 36.3536C68.9314 37.0989 69.0382 37.9329 68.9136 38.838L67.8458 47.3202ZM80.196 43.0436C80.0359 44.339 79.4308 45.3682 78.4343 46.1667C77.4199 46.9653 76.1386 47.3734 74.5904 47.4267C73.8608 47.4444 73.149 47.3734 72.4727 47.196C71.7965 47.0185 71.1736 46.7523 70.6042 46.3974C70.0525 46.0425 69.5898 45.6344 69.2161 45.1553L71.7609 42.6887C72.1168 43.1501 72.5439 43.505 73.0778 43.7356C73.6116 43.9841 74.1989 44.0906 74.8751 44.0728C75.3378 44.0551 75.6937 43.9663 75.9607 43.8244C76.2276 43.6647 76.37 43.4695 76.4056 43.221C76.4412 42.9016 76.3344 42.6532 76.0497 42.4935C75.7649 42.3338 75.409 42.1918 74.9641 42.0676C74.5192 41.9434 74.0565 41.8192 73.5583 41.6594C73.06 41.5175 72.6151 41.3045 72.188 41.0206C71.7609 40.7544 71.4406 40.3463 71.227 39.8494C70.9957 39.3348 70.9423 38.696 71.0491 37.8975C71.1558 37.0457 71.4584 36.3004 71.9566 35.6616C72.4549 35.0227 73.0956 34.5081 73.8964 34.1177C74.6972 33.7273 75.6048 33.5144 76.6013 33.4789C77.6513 33.4434 78.6122 33.6031 79.4486 33.9758C80.285 34.3307 80.9435 34.8808 81.4062 35.6261L78.8614 38.0927C78.541 37.6135 78.1317 37.2764 77.6691 37.0989C77.2064 36.9215 76.7437 36.8327 76.281 36.8505C75.8361 36.8682 75.498 36.9392 75.2488 37.0812C75.0175 37.2231 74.8751 37.4183 74.8395 37.6845C74.804 37.9507 74.9285 38.1636 75.1955 38.3233C75.4624 38.483 75.8183 38.6073 76.2632 38.7137C76.7081 38.8202 77.1708 38.9622 77.6691 39.1219C78.1495 39.2816 78.6122 39.5123 79.0393 39.8139C79.4664 40.1156 79.7867 40.506 80.0003 41.0206C80.2494 41.5352 80.3028 42.2096 80.196 43.0436ZM95.2334 39.8139C95.0554 41.1271 94.6105 42.316 93.8809 43.3807C93.1513 44.4455 92.2259 45.315 91.1226 45.9538C90.0192 46.5926 88.8269 46.9298 87.5279 46.983C86.2466 47.0185 85.1254 46.7523 84.1823 46.1845C83.2213 45.6166 82.5273 44.8004 82.0646 43.7711C81.6019 42.7419 81.4595 41.5707 81.6197 40.2576C81.7977 38.9444 82.2425 37.7732 82.9722 36.7085C83.7018 35.6616 84.6272 34.8098 85.7305 34.171C86.8338 33.5321 88.0261 33.195 89.3252 33.1417C90.6243 33.1062 91.7454 33.3547 92.6886 33.9225C93.6318 34.4904 94.3436 35.2889 94.8063 36.3004C95.2512 37.3474 95.3935 38.5185 95.2334 39.8139Z" fill="red"/>
<path d="M45.4946 27.126L46.4912 18.2356L49.2851 27.0018L52.0434 26.8953L56.3678 17.6855L55.7449 26.7711L62.7208 26.5227L65.052 1.67929H58.3253L51.8477 14.1187L48.0216 1.6438H41.5084L38.6255 27.3744L45.4946 27.126Z" fill="red"/>
</g>
<defs>
<clipPath id="clip0_903_35">
<rect width="100.901" height="53.2535" fill="red" transform="translate(0.845215 0.809814)"/>
</clipPath>
</defs>
</svg>
