<?xml version="1.0" encoding="utf-8"?>
<!-- Generator: Adobe Illustrator 24.2.3, SVG Export Plug-In . SVG Version: 6.00 Build 0)  -->
<svg version="1.1" id="Calque_1" xmlns="http://www.w3.org/2000/svg" xmlns:xlink="http://www.w3.org/1999/xlink" x="0px" y="0px"
	 viewBox="0 0 515.5 188" style="enable-background:new 0 0 515.5 188;" xml:space="preserve">
<style type="text/css">
	.st0{fill:#ED1C24;}
	.st1{fill:#0B0A0B;}
	.st2{fill:none;stroke:#000000;stroke-width:1.4;stroke-miterlimit:3.864;}
	.st3{fill:#FFFFFF;}
	.st4{fill:none;stroke:#000000;stroke-width:1.1;stroke-miterlimit:3.864;}
	.st5{fill:none;stroke:#000000;stroke-width:1.1;stroke-linejoin:round;stroke-miterlimit:3.864;}
</style>
<g>
	<g>
		<g>
			<polyline class="st0" points="0,93.5 257.8,0 515.5,93.5 257.8,188 0,93.5 			"/>
			<rect x="411.9" y="144.3" class="st1" width="16.5" height="8.7"/>
			<rect x="411.9" y="144.3" class="st2" width="16.5" height="8.7"/>
			<path class="st1" d="M420.15,148.65"/>
			<path class="st2" d="M420.15,148.65"/>
			<rect x="138.3" y="138.1" class="st1" width="15.1" height="15"/>
			<rect x="138.3" y="138.1" class="st2" width="15.1" height="15"/>
			<path class="st1" d="M145.85,145.6"/>
			<path class="st2" d="M145.85,145.6"/>
			<rect x="127.7" y="30" class="st1" width="15.5" height="21.8"/>
			<rect x="127.7" y="30" class="st2" width="15.5" height="21.8"/>
			<path class="st1" d="M135.45,40.9"/>
			<path class="st2" d="M135.45,40.9"/>
			<rect x="320" y="27.5" class="st1" width="27.2" height="17.5"/>
			<rect x="320" y="27.5" class="st2" width="27.2" height="17.5"/>
			<path class="st1" d="M333.6,36.25"/>
			<path class="st2" d="M333.6,36.25"/>
			<polyline points="201.4,37.5 210.1,37.5 222.5,21.4 209.2,21.4 201.4,37.5 			"/>
			<polygon class="st2" points="201.4,37.5 210.1,37.5 222.5,21.4 209.2,21.4 			"/>
			<polyline points="87.3,21.6 106.2,21.6 106.2,138.6 127.4,138.6 127.4,153.1 87.3,153.1 87.3,21.6 			"/>
			<polygon class="st2" points="87.3,21.6 106.2,21.6 106.2,138.6 127.4,138.6 127.4,153.1 87.3,153.1 			"/>
			<rect x="127.4" y="42.3" width="15.3" height="110.8"/>
			<path class="st2" d="M127.4,153.1 M142.7,153.1h-15.3V42.3h15.3V153.1z"/>
			<rect x="123" y="21.6" width="17.2" height="15.3"/>
			<path class="st2" d="M123,36.9 M140.2,36.9H123V21.6h17.2V36.9z"/>
			<path d="M163.8,49.6c5.7-12.1,23.45-11.6,22.35,9.1v77.5c0,20.3-18.75,21.2-22.35,11.5v-2.1v7.5h-16.5V21.4h16.5V49.6"/>
			<path class="st2" d="M163.8,49.6c5.7-12.1,23.45-11.6,22.35,9.1v77.5c0,20.3-18.75,21.2-22.35,11.5v-2.1v7.5h-16.5V21.4h16.5
				V49.6z"/>
			<path d="M173.7,137.6c0,5-7,5.1-7,0V57.8c0-5,7-4.9,7,0V137.6"/>
			<path class="st2" d="M173.7,137.6c0,5-7,5.1-7,0V57.8c0-5,7-4.9,7,0V137.6z"/>
			<path d="M215.8,109h14.7v30.2c0.9,15.9-19,14.4-19,14.4c-8.2,0-21-3.9-17.5-16.7V57.6c0-12.1,9.7-16.2,17.9-16.2h0.6
				c8.3,0,18,4.1,18,16.2v39.3h-21.7v40.7c0,5.1,7,5,7,0V109"/>
			<path class="st2" d="M215.8,109h14.7v30.2c0.9,15.9-19,14.4-19,14.4c-8.2,0-21-3.9-17.5-16.7V57.6c0-12.1,9.7-16.2,17.9-16.2h0.6
				c8.3,0,18,4.1,18,16.2v39.3h-21.7v40.7c0,5.1,7,5,7,0V109z"/>
			<path d="M211.6,86.9V57.8c0-5,7-4.9,7,0v29.1H211.6"/>
			<path class="st2" d="M211.6,86.9V57.8c0-5,7-4.9,7,0v29.1H211.6z"/>
			<path d="M254.5,55.5c1.9-2.6,6.5-1.9,11.4,3c4.8,4.8,15.5-8.3,6.3-14.8c-9.2-6.6-14.8-0.9-17.7,4.8l-0.1-0.2v-6H233v110.8h21.4
				V55.5H254.5"/>
			<path class="st2" d="M254.5,55.5c1.9-2.6,6.5-1.9,11.4,3c4.8,4.8,15.5-8.3,6.3-14.8c-9.2-6.6-14.8-0.9-17.7,4.8l-0.1-0.2v-6H233
				v110.8h21.4V55.5H254.5z"/>
			<path d="M262.8,136.7v-34.9c-0.1-11.4,7.1-14.2,21.7-23.3V58.8c0-5.1-7.1-5-7.1,0v16h-14.6V57.4c0-12.2,9.7-16.3,17.9-16.3h0.6
				c8.3,0,18.3,3.1,18,16.3v95.7h-14.8v-5.3c-8.6,10.6-21.7,5.8-21.7-4.8V136.7"/>
			<path class="st2" d="M262.8,136.7v-34.9c-0.1-11.4,7.1-14.2,21.7-23.3V58.8c0-5.1-7.1-5-7.1,0v16h-14.6V57.4
				c0-12.2,9.7-16.3,17.9-16.3h0.6c8.3,0,18.3,3.1,18,16.3v95.7h-14.8v-5.3c-8.6,10.6-21.7,5.8-21.7-4.8V136.7z"/>
			<path d="M280.7,101.9c0-5.1,5.4-7.7,7-8.7v44.4c0,5-7,5.1-7,0V101.9"/>
			<path class="st2" d="M280.7,101.9c0-5.1,5.4-7.7,7-8.7v44.4c0,5-7,5.1-7,0V101.9z"/>
			<path d="M324.4,54.7h4.1V41.6h-4.1c0-10.9,0-16.6,0-16.6l-15.3,5.7c0,0,0,4.2,0,10.9H305v13.1h4.1c0,31,0,82,0,89
				c0,14.9,16.4,10.5,27.6,4.2v-10c-3,0-12.3,0.2-12.3-4.2C324.4,130.9,324.4,86.3,324.4,54.7"/>
			<path class="st2" d="M324.4,54.7h4.1V41.6h-4.1c0-10.9,0-16.6,0-16.6l-15.3,5.7c0,0,0,4.2,0,10.9H305v13.1h4.1c0,31,0,82,0,89
				c0,14.9,16.4,10.5,27.6,4.2v-10c-3,0-12.3,0.2-12.3-4.2C324.4,130.9,324.4,86.3,324.4,54.7z"/>
			<polyline points="347.6,153 347.3,41.6 331.3,41.6 331.6,153 347.6,153 			"/>
			<polygon class="st2" points="347.6,153 347.3,41.6 331.3,41.6 331.6,153 			"/>
			<rect x="331.3" y="22.9" width="16" height="13.8"/>
			<path class="st2" d="M347.3,36.7 M331.3,36.7h16V22.9h-16V36.7z"/>
			<path d="M391.57,147.5c-3.4,6.8-13,6.9-16.6,6.7c-10.3-0.5-20.2-5.3-20.2-17.4V57.5c0-12.1,9.7-16.2,17.9-16.2h0.7
				c10-1.3,18.2,2.6,18.2,14.7C391.57,56,391.5,147.5,391.57,147.5"/>
			<path class="st2" d="M391.57,147.5c-3.4,6.8-13,6.9-16.6,6.7c-10.3-0.5-20.2-5.3-20.2-17.4V57.5c0-12.1,9.7-16.2,17.9-16.2h0.7
				c10-1.3,18.2,2.6,18.2,14.7C391.57,56,391.5,147.5,391.57,147.5z"/>
			<path d="M383,137.6c0,5-7,5.1-7,0V57.8c0-5,7-4.9,7,0V137.6"/>
			<path class="st2" d="M383,137.6c0,5-7,5.1-7,0V57.8c0-5,7-4.9,7,0V137.6z"/>
			<path d="M420.7,153V57.7c0-4.9-3.9-5-3.9,0V153h-19.2V41.3l10.65,3.32l5.85,4.88c4.4-11.6,23.2-11.2,23.2,9.2V153H420.7"/>
			<path class="st2" d="M420.7,153V57.7c0-4.9-3.9-5-3.9,0V153h-19.2V41.3l10.65,3.32l5.85,4.88c4.4-11.6,23.2-11.2,23.2,9.2V153
				H420.7z"/>
			<polygon class="st3" points="80.6,18.2 97.4,18.2 97.4,133.3 116.5,133.3 116.5,147.8 80.6,147.8 			"/>
			<polygon class="st4" points="80.6,18.2 97.4,18.2 97.4,133.3 116.5,133.3 116.5,147.8 80.6,147.8 			"/>
			<path class="st3" d="M116.5,147.7 M131.8,147.7h-15.3V36.9h15.3V147.7z"/>
			<path class="st4" d="M116.5,147.7 M131.8,147.7h-15.3V36.9h15.3V147.7z"/>
			<path class="st3" d="M116.4,32.1 M131.9,32.1h-15.5V18.2h15.5V32.1z"/>
			<path class="st4" d="M116.4,32.1 M131.9,32.1h-15.5V18.2h15.5V32.1z"/>
			<path class="st3" d="M156.8,44c4.3-11.7,21.6-11.2,21.6,9.2v77.3c-0.6,21.5-19.1,22.7-21.6,10.6v6.4h-16.5V18.2h16.5V44"/>
			<path class="st5" d="M156.8,44c4.3-11.7,21.6-11.2,21.6,9.2v77.3c-0.6,21.5-19.1,22.7-21.6,10.6v6.4h-16.5V18.2h16.5V44z"/>
			<path d="M163.1,132.4c0,5-6.4,5.1-6.4,0V52.6c0-5.1,6.4-5,6.4,0V132.4"/>
			<path class="st2" d="M163.1,132.4c0,5-6.4,5.1-6.4,0V52.6c0-5.1,6.4-5,6.4,0V132.4z"/>
			<path class="st3" d="M207.7,103.7h14.7v27.9c0,12.1-9.7,16.8-18,16.8h-0.6c-8.2,0-17.9-4.7-17.9-16.8V52.3
				c0-12.2,9.7-16.3,17.9-16.3h0.6c8.3,0,18,4.1,18,16.3v39.3h-21.7v40.7c0,5.1,7,5,7,0V103.7z"/>
			<path class="st4" d="M207.7,103.7h14.7v27.9c0,12.1-9.7,16.8-18,16.8h-0.6c-8.2,0-17.9-4.7-17.9-16.8V52.3
				c0-12.2,9.7-16.3,17.9-16.3h0.6c8.3,0,18,4.1,18,16.3v39.3h-21.7v40.7c0,5.1,7,5,7,0V103.7z"/>
			<path class="st1" d="M200.8,81.6V52.5c0-5.1,7-5,7,0v29.1H200.8"/>
			<path class="st2" d="M200.8,81.6V52.5c0-5.1,7-5,7,0v29.1H200.8z"/>
			<polygon class="st3" points="199.5,30.7 208.2,30.7 217.9,19.2 205.1,19.2 			"/>
			<polygon class="st4" points="199.5,30.7 208.2,30.7 217.9,19.2 205.1,19.2 			"/>
			<path class="st3" d="M245.8,50.2c3-5.3,6.5-2.2,11.4,2.6c4.8,4.9,15.5-8.2,6.3-14.8c-9.2-6.5-14.8-0.8-17.7,4.9l-0.1-0.3V37
				h-16.5v110.5h16.6V50.2z"/>
			<path class="st4" d="M245.8,50.2c3-5.3,6.5-2.2,11.4,2.6c4.8,4.9,15.5-8.2,6.3-14.8c-9.2-6.5-14.8-0.8-17.7,4.9l-0.1-0.3V37
				h-16.5v110.5h16.6V50.2z"/>
			<path class="st3" d="M254.1,130.9V96.1c-0.1-11.4,7.1-14.3,21.7-23.4V52c0.1-5.5-7.1-5-7.1,0v17.1h-14.6V51.6
				c0-12.1,9.7-16.2,17.9-16.2h0.6c8.3,0,18,4.1,18,16.2v95.8h-14.8V142c-8.6,10.7-21.5,7.2-21.7-4.7V130.9z"/>
			<path class="st4" d="M254.1,130.9V96.1c-0.1-11.4,7.1-14.3,21.7-23.4V52c0.1-5.5-7.1-5-7.1,0v17.1h-14.6V51.6
				c0-12.1,9.7-16.2,17.9-16.2h0.6c8.3,0,18,4.1,18,16.2v95.8h-14.8V142c-8.6,10.7-21.5,7.2-21.7-4.7V130.9z"/>
			<path d="M269.5,96.5c0-5,4.8-7.6,6.3-8.6v44.4c0,5-6.3,5.1-6.3,0V96.5"/>
			<path class="st2" d="M269.5,96.5c0-5,4.8-7.6,6.3-8.6v44.4c0,5-6.3,5.1-6.3,0V96.5z"/>
			<path class="st3" d="M314.6,49.4h4.1V37h-4.2l0.1-16.9l-15.3,5.2c0,0,0,4.9,0,11.7h-4.1v12.4h4.1c0,31,0,79.3,0,89.7
				c0,11.8,13,9.8,19.7,6.6v-10c-2.9,0-4.4-2.9-4.4-7.3C314.6,125.6,314.6,81,314.6,49.4z"/>
			<path class="st4" d="M314.6,49.4h4.1V37h-4.2l0.1-16.9l-15.3,5.2c0,0,0,4.9,0,11.7h-4.1v12.4h4.1c0,31,0,79.3,0,89.7
				c0,11.8,13,9.8,19.7,6.6v-10c-2.9,0-4.4-2.9-4.4-7.3C314.6,125.6,314.6,81,314.6,49.4z"/>
			<path class="st3" d="M339.5,147.4 M324.4,147.4h15.1V37h-15.1V147.4z"/>
			<path class="st4" d="M339.5,147.4 M324.4,147.4h15.1V37h-15.1V147.4z"/>
			<path class="st3" d="M340.5,32 M324.5,32h16V18.3h-16V32z"/>
			<path class="st4" d="M340.5,32 M324.5,32h16V18.3h-16V32z"/>
			<path class="st3" d="M383.8,103.7v27.9c0,12.1-9.5,16.6-17.7,16.6h-0.6c-8.3,0-18.2-4.5-18.2-16.6V52.3c0-12.2,9.7-16.3,18-16.3
				h0.6c8.2,0,17.9,4.1,17.9,16.3V103.7z"/>
			<path class="st4" d="M383.8,103.7v27.9c0,12.1-9.5,16.6-17.7,16.6h-0.6c-8.3,0-18.2-4.5-18.2-16.6V52.3c0-12.2,9.7-16.3,18-16.3
				h0.6c8.2,0,17.9,4.1,17.9,16.3V103.7z"/>
			<path d="M369,132c0,5-7,5.1-7,0V52.2c0-5.1,7-5,7,0V132"/>
			<path class="st2" d="M369,132c0,5-7,5.1-7,0V52.2c0-5.1,7-5,7,0V132z"/>
			<path class="st3" d="M414.5,147.8V52.5c0-5-6.6-5.1-6.6,0v95.3h-16.5V37h16.5v7.3c4.4-11.7,21.6-11.2,21.6,9.2v94.3H414.5z"/>
			<path class="st4" d="M414.5,147.8V52.5c0-5-6.6-5.1-6.6,0v95.3h-16.5V37h16.5v7.3c4.4-11.7,21.6-11.2,21.6,9.2v94.3H414.5z"/>
		</g>
	</g>
</g>
</svg>
