<svg width="224" height="40" viewBox="0 0 224 40" fill="none" xmlns="http://www.w3.org/2000/svg">
<path d="M0 12.1571C0 21.1888 14.7038 32.8547 22.0557 37.5587C29.7273 33.4819 45.0704 22.6941 45.0704 12.1571C45.0704 -1.01409 28.7684 -2.89568 22.0557 3.68992C14.3842 -2.89567 0 0.867523 0 12.1571Z" fill="#3454F6"/>
<mask id="mask0_2_1770" style="mask-type:alpha" maskUnits="userSpaceOnUse" x="0" y="0" width="46" height="38">
<path d="M0 12.1571C0 21.1888 14.7038 32.8547 22.0557 37.5587C29.7273 33.4819 45.0704 22.6941 45.0704 12.1571C45.0704 -1.01409 28.7684 -2.89568 22.0557 3.68992C14.3842 -2.89567 0 0.867523 0 12.1571Z" fill="black"/>
</mask>
<g mask="url(#mask0_2_1770)">
<path d="M21.5963 15.8894C14.0845 12.8847 3.44289 15.2634 -0.938958 16.8283L-3.75586 3.68276L15.0235 -1.87791L44.1315 20.5842L38.4977 26.218C35.9938 24.0271 29.108 18.8941 21.5963 15.8894Z" fill="url(#paint0_linear_2_1770)"/>
</g>
<path fill-rule="evenodd" clip-rule="evenodd" d="M20.7324 20.3943V25.8028V25.8029C20.7324 26.7043 20.7324 27.6056 22.5351 27.6056C24.3379 27.6056 24.338 26.7042 24.3379 25.8028V20.3943H29.7465C29.8132 20.3943 29.8799 20.3953 29.9463 20.3962C30.7764 20.4078 31.5493 20.4187 31.5493 18.5915C31.5493 16.7887 30.6479 16.7887 29.7465 16.7887H24.3379V11.3803C24.338 11.3136 24.3389 11.2468 24.3398 11.1805C24.3515 10.3504 24.3623 9.57747 22.5351 9.57747C20.7324 9.57747 20.7324 10.4789 20.7324 11.3803V16.7887H15.3239H15.3238C14.4225 16.7887 13.5211 16.7887 13.5211 18.5915C13.5211 20.3943 14.4225 20.3944 15.3239 20.3943H20.7324Z" fill="white"/>
<path d="M81.0651 16.799C81.0651 19.9776 80.4705 22.7001 79.2813 24.9664C78.1017 27.2231 76.4905 28.9517 74.4478 30.152C72.4147 31.3524 70.1082 31.9526 67.5284 31.9526C64.9486 31.9526 62.6373 31.3524 60.5946 30.152C58.5615 28.9421 56.9503 27.2087 55.7611 24.952C54.5815 22.6857 53.9917 19.968 53.9917 16.799C53.9917 13.6204 54.5815 10.9027 55.7611 8.64597C56.9503 6.37964 58.5615 4.64629 60.5946 3.4459C62.6373 2.24552 64.9486 1.64532 67.5284 1.64532C70.1082 1.64532 72.4147 2.24552 74.4478 3.4459C76.4905 4.64629 78.1017 6.37964 79.2813 8.64597C80.4705 10.9027 81.0651 13.6204 81.0651 16.799ZM75.6994 16.799C75.6994 14.5615 75.3493 12.6745 74.6492 11.138C73.9587 9.59187 72.9997 8.4251 71.7721 7.63764C70.5446 6.84059 69.13 6.44206 67.5284 6.44206C65.9268 6.44206 64.5123 6.84059 63.2847 7.63764C62.0571 8.4251 61.0933 9.59187 60.3932 11.138C59.7027 12.6745 59.3575 14.5615 59.3575 16.799C59.3575 19.0365 59.7027 20.9283 60.3932 22.4744C61.0933 24.0109 62.0571 25.1777 63.2847 25.9747C64.5123 26.7622 65.9268 27.1559 67.5284 27.1559C69.13 27.1559 70.5446 26.7622 71.7721 25.9747C72.9997 25.1777 73.9587 24.0109 74.6492 22.4744C75.3493 20.9283 75.6994 19.0365 75.6994 16.799Z" fill="#0C0E16"/>
<path d="M84.2603 31.5493V9.42381H89.3096V13.1114H89.5397C89.9425 11.8342 90.633 10.8499 91.6113 10.1585C92.5991 9.45743 93.7259 9.10691 94.9918 9.10691C95.2795 9.10691 95.6008 9.12132 95.9557 9.15013C96.3201 9.16933 96.6222 9.20294 96.8619 9.25096V14.0477C96.6414 13.9709 96.2913 13.9036 95.8118 13.846C95.3419 13.7788 94.8863 13.7452 94.4452 13.7452C93.4957 13.7452 92.6422 13.9517 91.8846 14.3646C91.1365 14.7679 90.5467 15.3297 90.1152 16.0499C89.6836 16.7702 89.4678 17.6008 89.4678 18.5419V31.5493H84.2603Z" fill="#0C0E16"/>
<path d="M105.991 31.9382C104.255 31.9382 102.702 31.4917 101.33 30.5986C99.9588 29.7055 98.8751 28.4091 98.0791 26.7093C97.2831 25.0096 96.8851 22.9449 96.8851 20.5154C96.8851 18.057 97.2879 15.9827 98.0935 14.2926C98.9087 12.5928 100.007 11.3108 101.388 10.4465C102.769 9.57266 104.308 9.13572 106.005 9.13572C107.3 9.13572 108.365 9.35659 109.199 9.79833C110.033 10.2305 110.695 10.7538 111.184 11.3684C111.673 11.9734 112.052 12.5448 112.321 13.0826H112.536V2.04865H117.758V31.5493H112.637V28.0634H112.321C112.052 28.6012 111.664 29.1725 111.155 29.7775C110.647 30.3729 109.976 30.8819 109.142 31.3044C108.307 31.727 107.257 31.9382 105.991 31.9382ZM107.444 27.6601C108.547 27.6601 109.487 27.3624 110.264 26.767C111.04 26.162 111.63 25.3217 112.033 24.2462C112.436 23.1706 112.637 21.9174 112.637 20.4866C112.637 19.0557 112.436 17.8121 112.033 16.7558C111.64 15.6994 111.055 14.8784 110.278 14.2926C109.511 13.7068 108.566 13.4139 107.444 13.4139C106.284 13.4139 105.315 13.7164 104.538 14.3214C103.761 14.9264 103.176 15.7618 102.783 16.8278C102.39 17.8937 102.193 19.1133 102.193 20.4866C102.193 21.8694 102.39 23.1034 102.783 24.1885C103.186 25.2641 103.776 26.114 104.553 26.7382C105.339 27.3528 106.303 27.6601 107.444 27.6601Z" fill="#0C0E16"/>
<path d="M131.325 31.9814C129.168 31.9814 127.298 31.5061 125.715 30.5554C124.133 29.6047 122.905 28.2746 122.032 26.5653C121.169 24.856 120.738 22.8585 120.738 20.573C120.738 18.2875 121.169 16.2852 122.032 14.5663C122.905 12.8473 124.133 11.5125 125.715 10.5618C127.298 9.61108 129.168 9.13572 131.325 9.13572C133.483 9.13572 135.353 9.61108 136.936 10.5618C138.518 11.5125 139.741 12.8473 140.604 14.5663C141.477 16.2852 141.913 18.2875 141.913 20.573C141.913 22.8585 141.477 24.856 140.604 26.5653C139.741 28.2746 138.518 29.6047 136.936 30.5554C135.353 31.5061 133.483 31.9814 131.325 31.9814ZM131.354 27.8041C132.524 27.8041 133.502 27.4824 134.289 26.839C135.075 26.186 135.66 25.3121 136.044 24.2174C136.437 23.1226 136.634 21.903 136.634 20.5586C136.634 19.2045 136.437 17.9802 136.044 16.8854C135.66 15.781 135.075 14.9024 134.289 14.2494C133.502 13.5964 132.524 13.2698 131.354 13.2698C130.155 13.2698 129.158 13.5964 128.362 14.2494C127.576 14.9024 126.986 15.781 126.593 16.8854C126.209 17.9802 126.017 19.2045 126.017 20.5586C126.017 21.903 126.209 23.1226 126.593 24.2174C126.986 25.3121 127.576 26.186 128.362 26.839C129.158 27.4824 130.155 27.8041 131.354 27.8041Z" fill="#0C0E16"/>
<path d="M155.746 9.42381V13.4571H143.044V9.42381H155.746ZM146.18 4.12292H151.388V24.8944C151.388 25.5954 151.493 26.1332 151.704 26.5077C151.925 26.8726 152.212 27.1223 152.567 27.2567C152.922 27.3912 153.315 27.4584 153.747 27.4584C154.073 27.4584 154.37 27.4344 154.639 27.3864C154.917 27.3383 155.128 27.2951 155.272 27.2567L156.149 31.3332C155.871 31.4293 155.473 31.5349 154.955 31.6501C154.447 31.7654 153.824 31.8326 153.085 31.8518C151.781 31.8902 150.606 31.6933 149.561 31.2612C148.515 30.8195 147.686 30.1376 147.072 29.2157C146.468 28.2939 146.17 27.1415 146.18 25.7586V4.12292Z" fill="#0C0E16"/>
<path d="M161.718 39.8464C161.008 39.8464 160.351 39.7887 159.747 39.6735C159.153 39.5679 158.678 39.443 158.323 39.299L159.531 35.2369C160.289 35.4577 160.965 35.5634 161.56 35.5538C162.154 35.5442 162.677 35.3569 163.128 34.992C163.588 34.6367 163.976 34.0413 164.293 33.2058L164.739 32.0102L156.726 9.42381H162.25L167.343 26.1332H167.573L172.68 9.42381H178.218L169.371 34.2286C168.959 35.4001 168.412 36.4036 167.731 37.2391C167.05 38.0842 166.216 38.7276 165.228 39.1693C164.25 39.6207 163.08 39.8464 161.718 39.8464Z" fill="#0C0E16"/>
<path d="M180.201 39.8464V9.42381H185.322V13.0826H185.625C185.893 12.5448 186.272 11.9734 186.761 11.3684C187.25 10.7538 187.912 10.2305 188.746 9.79833C189.581 9.35659 190.645 9.13572 191.94 9.13572C193.647 9.13572 195.186 9.57266 196.558 10.4465C197.939 11.3108 199.032 12.5928 199.837 14.2926C200.653 15.9827 201.06 18.057 201.06 20.5154C201.06 22.9449 200.662 25.0096 199.866 26.7093C199.07 28.4091 197.986 29.7055 196.615 30.5986C195.244 31.4917 193.69 31.9382 191.954 31.9382C190.688 31.9382 189.638 31.727 188.804 31.3044C187.969 30.8819 187.298 30.3729 186.79 29.7775C186.291 29.1725 185.903 28.6012 185.625 28.0634H185.409V39.8464H180.201ZM185.308 20.4866C185.308 21.9174 185.51 23.1706 185.912 24.2462C186.325 25.3217 186.914 26.162 187.682 26.767C188.459 27.3624 189.398 27.6601 190.501 27.6601C191.652 27.6601 192.616 27.3528 193.393 26.7382C194.17 26.114 194.755 25.2641 195.148 24.1885C195.551 23.1034 195.752 21.8694 195.752 20.4866C195.752 19.1133 195.555 17.8937 195.162 16.8278C194.769 15.7618 194.184 14.9264 193.407 14.3214C192.63 13.7164 191.662 13.4139 190.501 13.4139C189.389 13.4139 188.444 13.7068 187.667 14.2926C186.89 14.8784 186.301 15.6994 185.898 16.7558C185.505 17.8121 185.308 19.0557 185.308 20.4866Z" fill="#0C0E16"/>
<path d="M213.681 31.9814C211.466 31.9814 209.553 31.5205 207.942 30.5986C206.34 29.6671 205.108 28.3515 204.245 26.6517C203.381 24.9424 202.95 22.9305 202.95 20.6162C202.95 18.3403 203.381 16.3428 204.245 14.6239C205.117 12.8953 206.335 11.5509 207.898 10.5906C209.462 9.62068 211.298 9.13572 213.408 9.13572C214.77 9.13572 216.055 9.35659 217.263 9.79833C218.481 10.2305 219.555 10.9027 220.486 11.815C221.426 12.7273 222.164 13.8892 222.701 15.3009C223.238 16.7029 223.507 18.3739 223.507 20.3137V21.9126H205.395V18.3979H218.515C218.505 17.3992 218.29 16.5109 217.868 15.733C217.446 14.9456 216.856 14.3262 216.098 13.8748C215.35 13.4235 214.477 13.1978 213.48 13.1978C212.415 13.1978 211.48 13.4571 210.675 13.9757C209.869 14.4846 209.241 15.1569 208.79 15.9923C208.349 16.8182 208.124 17.7257 208.114 18.7148V21.783C208.114 23.0698 208.349 24.1741 208.819 25.096C209.289 26.0083 209.946 26.7093 210.79 27.1991C211.634 27.6793 212.622 27.9193 213.753 27.9193C214.511 27.9193 215.197 27.8137 215.81 27.6024C216.424 27.3816 216.956 27.0599 217.407 26.6373C217.858 26.2148 218.198 25.6914 218.429 25.0672L223.291 25.6146C222.984 26.9014 222.399 28.025 221.536 28.9853C220.682 29.936 219.589 30.6754 218.256 31.2036C216.923 31.7222 215.398 31.9814 213.681 31.9814Z" fill="#0C0E16"/>
<defs>
<linearGradient id="paint0_linear_2_1770" x1="7.88733" y1="6.47888" x2="46.7606" y2="26.4789" gradientUnits="userSpaceOnUse">
<stop stop-color="#7CD0FF"/>
<stop offset="1" stop-color="#A7DFFF" stop-opacity="0"/>
</linearGradient>
</defs>
</svg>
